<svg xmlns="http://www.w3.org/2000/svg" width="119.507" height="119.507" viewBox="0 0 119.507 119.507">
  <g id="Flash" transform="translate(4.243 4.243)">
    <g id="Rectangle_10" data-name="Rectangle 10" transform="translate(55.511 0) rotate(45)" fill="none" stroke="#fff" stroke-width="3">
      <rect width="78.504" height="78.504" stroke="none"/>
      <rect x="-1.5" y="-1.5" width="81.504" height="81.504" fill="none"/>
    </g>
    <rect id="Rectangle_34" data-name="Rectangle 34" width="78.504" height="78.504" transform="translate(55.511) rotate(45)" fill="#3bff00" opacity="0.497"/>
    <g id="FlashGrenade" transform="translate(22.956 22.476)">
      <g id="Group_14" data-name="Group 14" transform="translate(9.982 6.58)">
        <path id="Path_60" data-name="Path 60" d="M133.263,40.17h0l-1.22-13.949.008-.009-12.787-10.73-1.88,2.241,11.849,9.943,1.011,11.552-5.831,6.949-.161,4.742,9.011-10.739Z" transform="translate(-77.479 -15.482)" fill="#fff"/>
        <path id="Path_61" data-name="Path 61" d="M108.223,34.114l1.091.916,1.557-1.856L100.4,24.39l-1.557,1.855,1.091.916-3.269,3.9-4.338-3.64-5.658,8.694,2.286,1.918,10.468,8.784,2.286,1.918,7.58-7.082-4.338-3.64Z" transform="translate(-59.82 -20.604)" fill="#fff"/>
        <rect id="Rectangle_17" data-name="Rectangle 17" width="26.407" height="13.665" transform="matrix(0.643, -0.766, 0.766, 0.643, 11.015, 39.023)" fill="#fff"/>
        <path id="Path_62" data-name="Path 62" d="M31.067,106.015l-7.58,7.082,16.962,14.233,5.658-8.694Z" transform="translate(-23.487 -67.54)" fill="#fff"/>
      </g>
      <path id="Path_63" data-name="Path 63" d="M46.132,105.414l.058.048.069-.082Z" transform="translate(-26.527 -60.595)" fill="#fff"/>
      <path id="Path_64" data-name="Path 64" d="M9.262,50.763l-3.646.958L12.47,41.593.354,39.939l10.208-6.734L0,27.04l12.008-2.315-7.4-9.737,11.98,2.456L13.481,5.616,23.609,12.47,25.263.354,32,10.561,38.163,0l2.129,11.043.429,2.333-2.435,3.742L36.671,8.744l-4.512,7.728L27.231,9l-1.211,8.867-7.411-5.016,2.275,8.655-8.767-1.8,5.414,7.126L8.744,28.531l7.728,4.512L9,37.971l8.867,1.21Z" fill="#fff"/>
    </g>
  </g>
</svg>
