<svg xmlns="http://www.w3.org/2000/svg" width="111.022" height="111.022" viewBox="0 0 111.022 111.022">
  <g id="Jump" transform="translate(0)">
    <rect id="Rectangle_3" data-name="Rectangle 3" width="78.504" height="78.504" transform="translate(55.511 0) rotate(45)" fill="#ff8900" opacity="0.498"/>
    <g id="Jump-2" data-name="Jump" transform="translate(29.224 22.763)">
      <g id="Group_1" data-name="Group 1" transform="translate(20.326 10.642)" opacity="0.5">
        <path id="Path_1" data-name="Path 1" d="M44.515,50.047,62.359,32.2,80.2,50.047v-8.9L62.359,23.306,44.515,41.15Z" transform="translate(-44.515 -23.306)" fill="#fff"/>
        <path id="Path_2" data-name="Path 2" d="M48.705,70.054,64.636,54.123,80.567,70.054V81.391L64.636,65.459,48.705,81.391Z" transform="translate(-46.792 -40.052)" fill="none" stroke="#fff" stroke-miterlimit="10" stroke-width="1"/>
        <path id="Path_3" data-name="Path 3" d="M51.895,80.326,66.37,65.851,80.845,80.326V73.109L66.37,58.634,51.895,73.109Z" transform="translate(-48.525 -42.503)" fill="#fff"/>
        <path id="Path_4" data-name="Path 4" d="M57.545,107.675,69.44,95.78l11.9,11.895v-5.93l-11.9-11.9-11.895,11.9Z" transform="translate(-51.595 -59.465)" fill="#fff"/>
      </g>
      <path id="Path_5" data-name="Path 5" d="M11.886,0c.343.055.685.114,1.03.163.717.1,1.435.2,2.153.308A.292.292,0,0,1,15.254.6q.7,1.217,1.389,2.444a.818.818,0,0,1,.08.327c.094,1.2.183,2.392.274,3.588.01.13.026.259.04.4l.643-.065.3-2.614c.274-.018.537-.038.8-.054.795-.046,1.59-.091,2.385-.143.13-.009.178.042.218.154.3.822.6,1.644.908,2.466.015.041.032.081.038.1.374,0,.734,0,1.093,0,.046,0,.1-.057.137-.1.17-.206.33-.421.506-.621a.274.274,0,0,1,.2-.081q1.715.186,3.427.388a1.274,1.274,0,0,1,.314.082c.45.178.9.365,1.348.543a.433.433,0,0,0,.232.022c.752-.152,1.5-.313,2.254-.465a.444.444,0,0,1,.234.017q1.356.521,2.708,1.054a.383.383,0,0,1,.183.167c.161.306.31.62.479.964l.394-1.282,1.166.1c-.026.307-.049.6-.076.89l-.32,3.5q-.142,1.539-.285,3.078-.22,2.411-.437,4.823c-.082.9-.183,1.8-.243,2.7a4.817,4.817,0,0,0,.1.908c.06.465.128.929.183,1.395a.252.252,0,0,1-.056.185c-.69.676-1.385,1.346-2.1,2.033-.137-.152-.278-.294-.4-.45-.027-.034-.009-.122.014-.174.228-.511.457-1.025.7-1.528a1.408,1.408,0,0,0,.153-.731c-.021-.343-.017-.688-.033-1.031a.335.335,0,0,0-.072-.188c-.144-.171-.295-.337-.453-.495a.212.212,0,0,0-.176-.046c-.242.074-.481.163-.746.256.053-.461.1-.9.16-1.336.008-.059.076-.114.123-.164.134-.143.352-.266.386-.428s-.11-.363-.183-.543c-.329-.818-.672-1.63-.983-2.454a3.364,3.364,0,0,1-.13-.769q-.137-1.1-.261-2.192c-.091-.811-.179-1.622-.269-2.434-.01-.091-.026-.183-.041-.283l-5.1,1.725c-.054.731-.105,1.482-.168,2.231-.095,1.119-.2,2.237-.3,3.354-.009.1-.046.179-.157.195-.324.046-.416.228-.421.552-.012.927-.089,1.853-.091,2.78a8.551,8.551,0,0,0,.166,1.245c.147,1,.306,2,.435,3.008a.9.9,0,0,0,.447.737c1.1.685,2.18,1.407,3.264,2.12a.8.8,0,0,1,.217.214q1.165,1.73,2.322,3.464c.033.049.068.1.113.163l.653-.451c.046.284.088.548.128.814.149.985.3,1.97.444,2.956a.639.639,0,0,1-.023.271Q32.1,42.54,30.7,47.182a1.74,1.74,0,0,0-.055.368,5.712,5.712,0,0,0,.345,2.436c.174.474.3.967.434,1.454a.437.437,0,0,1,0,.249c-.357,1.028-.723,2.055-1.08,3.08a.177.177,0,0,1-.211.14c-.795-.046-1.59-.082-2.385-.13a.24.24,0,0,1-.167-.113q-.792-1.6-1.569-3.2a.362.362,0,0,1-.02-.216q.309-1.511.628-3.021a.281.281,0,0,0-.069-.3,1.816,1.816,0,0,1-.486-1.091c-.131-.776-.293-1.552-.434-2.329a.31.31,0,0,1,.056-.216c.159-.215.328-.422.5-.625a.3.3,0,0,0,.079-.278c-.244-1.4-.482-2.8-.721-4.2,0-.021-.009-.041-.015-.067l-1.781-.1c-.523-.03-1.046-.062-1.568-.085a.548.548,0,0,0-.249.046c-.607.283-1.21.575-1.817.858a.351.351,0,0,0-.195.219Q17.8,45.9,15.669,51.736a.246.246,0,0,0,.023.241q1.6,2.585,3.2,5.173a.214.214,0,0,0,.206.119c.426,0,.851.02,1.279.025a.165.165,0,0,1,.18.121c.218.563.445,1.123.663,1.687a.428.428,0,0,1,.013.219c-.121.653-.251,1.3-.371,1.957a.451.451,0,0,0,.024.233q.663,1.721,1.338,3.438a.28.28,0,0,1-.019.271q-.927,1.616-1.845,3.238a.231.231,0,0,1-.243.137c-.431-.016-.862-.019-1.293-.037a.242.242,0,0,1-.174-.1q-.808-1.486-1.6-2.98a.357.357,0,0,1-.037-.2c.108-.788.222-1.575.332-2.363a.274.274,0,0,0-.026-.153c-.243-.463-.488-.925-.739-1.384a.471.471,0,0,0-.158-.156c-.749-.487-1.5-.97-2.252-1.456A.689.689,0,0,1,14,59.631q-2.789-3.416-5.587-6.849l.513-.587a1.714,1.714,0,0,1,.218-.243.8.8,0,0,0,.257-.639c.046-.548.1-1.1.142-1.644a.254.254,0,0,0-.08-.2.858.858,0,0,1-.4-.946c.1-.844.134-1.7.2-2.544.058-.805.142-1.609.165-2.415a10.415,10.415,0,0,1,.405-2.26q.752-2.974,1.5-5.95c.009-.036.023-.071.039-.116l.84.548c.053-.222.1-.43.151-.639q.419-1.8.836-3.593a.751.751,0,0,0,.007-.256c-.121-.973-.258-1.944-.365-2.919a30.309,30.309,0,0,0-.639-3.483c-.1-.424-.187-.849-.274-1.254-.29,0-.568-.006-.845,0a.2.2,0,0,1-.212-.128c-.387-.757-.78-1.51-1.172-2.263-.03-.058-.062-.114-.1-.183-.053.021-.1.038-.149.061L5.481,23.05a.274.274,0,0,0-.168.214c-.374,1.868-.755,3.734-1.121,5.6a1.47,1.47,0,0,0,.046.548,1.531,1.531,0,0,1-.033.784.371.371,0,0,0,.015.236,2.557,2.557,0,0,1,.2,1.4,6.488,6.488,0,0,0-.034.678c-.208-.158-.384-.3-.571-.431a.338.338,0,0,0-.2-.041.626.626,0,0,0-.633.646,2.543,2.543,0,0,1-.142.6.463.463,0,0,0,.082.452c.34.507.665,1.024,1,1.532a.183.183,0,0,1,0,.243c-.251.368-.493.743-.745,1.125L1.947,35.7Q1.065,35.02.183,34.345a.247.247,0,0,1-.1-.263q.149-1.266.284-2.534a3.547,3.547,0,0,0,0-.375c0-1.228.016-2.456,0-3.683-.019-1.2-.073-2.4-.115-3.6-.034-.927-.073-1.854-.11-2.78Q.08,19.787.026,18.463A1.259,1.259,0,0,0,0,18.3v-.491c.239-.021.479-.037.717-.063a.158.158,0,0,1,.191.123c.2.514.4,1.024.6,1.536.019.048.041.095.07.161.067-.078.115-.137.166-.192a10.849,10.849,0,0,1,.956-1.05c.885-.76,1.8-1.48,2.71-2.216.215-.174.428-.35.643-.526l-.29-.457,2.39-.9c-.2-.787-.4-1.561-.591-2.337a.193.193,0,0,1,.043-.162c.534-.44,1.073-.873,1.608-1.305l2.607,2.306.32-.614c-.051-.041-.088-.073-.127-.1-.491-.38-.985-.759-1.473-1.142a.642.642,0,0,1-.185-.219Q9.192,8.191,8.041,5.717a.383.383,0,0,1-.024-.228c.291-1.222.59-2.443.879-3.665a.337.337,0,0,1,.175-.234q1.2-.71,2.393-1.421c.088-.053.171-.112.257-.168Zm2.178,3.53L12.357,4.725l-1.175.588-1.968.5.612,1.37s1.263-.6,1.8-.831c.714,1.461,2.007,4.3,2.007,4.3l.776-.405L12.717,5.856l1.775-1Z" fill="#fff"/>
    </g>
    <g id="Rectangle_47" data-name="Rectangle 47" transform="translate(55.511) rotate(45)" fill="none" stroke="#fff" stroke-width="3">
      <rect width="78.504" height="78.504" stroke="none"/>
      <rect x="1.5" y="1.5" width="75.504" height="75.504" fill="none"/>
    </g>
  </g>
</svg>
