<svg xmlns="http://www.w3.org/2000/svg" width="113.85" height="113.85" viewBox="0 0 113.85 113.85">
  <g id="Melee_-_White" data-name="Melee - White" transform="translate(-7.032 -7.032)">
    <g id="Rectangle_9" data-name="Rectangle 9" transform="translate(63.957 8.446) rotate(45)" fill="none" stroke="#fff" stroke-width="1">
      <rect width="78.504" height="78.504" stroke="none"/>
      <rect x="-0.5" y="-0.5" width="79.504" height="79.504" fill="none"/>
    </g>
    <g id="MeleeDamage" transform="translate(36.035 25.459)">
      <rect id="Rectangle_14" data-name="Rectangle 14" width="29.236" height="29.236" transform="translate(32.46 11.787) rotate(45)" fill="none" stroke="#fff" stroke-miterlimit="10" stroke-width="1" opacity="0.5"/>
      <rect id="Rectangle_15" data-name="Rectangle 15" width="45.906" height="45.906" transform="translate(32.46 0) rotate(45)" fill="none" stroke="#fff" stroke-miterlimit="10" stroke-width="2" opacity="0.5"/>
      <rect id="Rectangle_16" data-name="Rectangle 16" width="36.995" height="36.995" transform="translate(32.46 6.301) rotate(45)" fill="none" stroke="#fff" stroke-miterlimit="10" stroke-width="1" opacity="0.5"/>
      <g id="Group_13" data-name="Group 13" transform="translate(2.086 12.65)">
        <path id="Path_55" data-name="Path 55" d="M53.287,23.488v.019l0,.02.007.02.011.017,4.11,5.8,0,0,.012.014.016.012.019.008.02.006.019,0,.019,0,.02,0,.018-.008,7.129-3.808.017-.011.015-.012.012-.017.01-.018.006-.02V25.5l0-.019,0-.021-.008-.018-3.324-6.29-.011-.017-.014-.016-.017-.012-.019-.008-.018,0-.019,0H61.3l-.019,0-.018.008-7.914,4.3-.013.008-.015.012-.014.015-.01.018-.005.018Z" transform="translate(-28.018 -19.087)" fill="#fff" fill-rule="evenodd"/>
        <path id="Path_56" data-name="Path 56" d="M64.165,39.571l-.016.014-.013.013-.01.018-.008.019,0,.019,0,.02,0,.021.007.02.008.018,2.993,4.524-1.57,2.075,0,.006-.01.018-.006.02,0,.019,0,.02,0,.02.007.02.011.017.012.015.016.012.018.01.02.006.019,0,.02,0,.02,0,.02-.007,9.086-4.566.008-.005.015-.012.014-.015.012-.017.008-.019,0-.019,0-.02,0-.02-.007-.02-.008-.018-3.674-5.9-.006-.012-.015-.014-.016-.012-.019-.008-.018-.005-.019,0h-.021l-.019,0-.02.007-6.831,3.737Z" transform="translate(-33.261 -27.188)" fill="#fff" fill-rule="evenodd"/>
        <path id="Path_57" data-name="Path 57" d="M57.723,59.832l-.017.011-.014.015-.012.016-.008.019-.005.018,0,.02v.021l0,.019.008.018.011.017,3.58,4.31.015.014.017.012.019.008.018.005h.041l.019,0,12.609-4.539.019-.01.017-.011.013-.013.012-.017.008-.019.005-.018,0-.022,0-.02-.005-.018-.01-.019-.011-.017-.013-.013-.016-.012-.06-.035-2.351-5.935,0-.006-.011-.017-.012-.015-.015-.014-.018-.01-.02-.006-.019,0H71.5l-.021,0-.018.005L57.731,59.827Z" transform="translate(-30.138 -35.782)" fill="#fff" fill-rule="evenodd"/>
        <path id="Path_58" data-name="Path 58" d="M79.67,75.5l0-.021v-.018l0-.02L78.289,70.39l0-.009-.008-.018-.011-.016-.015-.014-.014-.011-.019-.008-.02-.006h-.02l-.019,0-.021,0L66.414,74.418l-.009,0-.017.011-.014.012-.014.015-.01.018-.006.02,0,.019,0,.02,0,.02.9,3.475,0,.012.01.019.012.015.015.014.017.012.016.007.021,0,.02,0,.019,0,12.208-2.53.006,0,.02-.007.016-.011.015-.012.014-.015.01-.018Z" transform="translate(-34.338 -43.89)" fill="#fff" fill-rule="evenodd"/>
        <path id="Path_59" data-name="Path 59" d="M43.815,58.318v-.041l-.005-.019L43.8,58.24l-.011-.017-.015-.014L43.76,58.2l-.019-.008-.018-.005h-.041L36.2,59.468l-2.038-6.182-.006-.017-.011-.017-.012-.015-6.7-6.352-.009-.008-.018-.01-.019-.008-.021,0h-.018l-.019,0-.02.007-.018.008-.018.013-.013.013-.01.018-.008.019,0,.021v.018l.728,16.261v.005l0,.018.007.02.854,1.92-1.5-.743,0,0-.02-.006-.019,0h-.02l-.02,0-.019.005-.017.011-.015.012-2.442.7L25.9,63.091h0l.019-.005.017-.011.017-.011.014-.015.01-.018.007-.017,0-.021v-.02l-.779-18.018,0-.018-.005-.018L25.2,44.9l-.012-.015L20.535,39.6l.84-.635,2.274,1.313.888-3.542.351-.987,1.061.613.053.548-.447,4.824,1.629,1.951L28.99,46.03l.01.013.016.012.018.01.02.006.019,0,.019,0,.02,0,2.267-.675,2.27-.559,2.149-5.17-9.126-12-.013-.013-.013-.013-.018-.01-.02-.007-.019,0h-.021l-.021,0-.018.008L10.678,35.377l-.009,0-.016.014-.013.013-.012.017-.008.019-.005.018v.02l0,.022,4.427,22.482L4.319,70.879v0l-.011.014-.008.019-.006.02v.02l0,.02.007.019.008.018.011.017.015.014.014.011L23.7,81.988l.006,0,.019.008.021,0,.019,0,.02,0,.02-.007.018-.008.016-.014.013-.013.01-.018,6.652-13.485L38.2,65.374l.019-.01.015-.012.013-.013,5.54-6.969.011-.014.008-.019Z" transform="translate(-4.292 -23.217)" fill="#fff" fill-rule="evenodd"/>
      </g>
    </g>
  </g>
</svg>
