<svg xmlns="http://www.w3.org/2000/svg" width="119.507" height="119.507" viewBox="0 0 119.507 119.507">
  <g id="QuickSwap" transform="translate(-4.204 -4.204)">
    <g id="Rectangle_5" data-name="Rectangle 5" transform="translate(63.957 8.446) rotate(45)" fill="#00ffeb" stroke="#fff" stroke-width="3" opacity="0.499">
      <rect width="78.504" height="78.504" stroke="none"/>
      <rect x="-1.5" y="-1.5" width="81.504" height="81.504" fill="none"/>
    </g>
    <g id="QuickDraw" transform="translate(22.105 22.095)">
      <g id="Group_5" data-name="Group 5" transform="translate(14.801 19.029)">
        <path id="Path_27" data-name="Path 27" d="M24.122,74.935a19.3,19.3,0,0,1,1.417-4.849,2.776,2.776,0,0,0,.007-2.219,12.585,12.585,0,0,1-.494-1.6l2.81-1.561a3.645,3.645,0,0,0-.207-.863c-.8-1.555-.021-2.776.807-3.993,1.97.3,2.013.3,3.038-.579-.262-.073-.464-.123-.66-.19s-.392-.148-.624-.237c.227-.94.468-1.772,1.611-2.031a17.229,17.229,0,0,0,2.342-.88l.365.767c1.013-.391,2-.75,2.966-1.169a.751.751,0,0,0,.316-.6,1.281,1.281,0,0,1,1.139-1.467,16.871,16.871,0,0,0,1.874-.708l.443,1.139,24.374-9.425-.492-1.274,1.317-.506.447,1.156,1.172-.387,2.363,6.11-.718.38,1.658,4.29-5.63,2.177.337,1.062c-.227.1-.432.2-.646.282-1.732.673-3.447,1.4-5.2,2a42.347,42.347,0,0,0-6.507,3.188,8.669,8.669,0,0,1-1.013.487c-3.025,1.177-6.048,2.361-9.086,3.5a2.433,2.433,0,0,0-1.481,1.19,2.729,2.729,0,0,1-1.846,1.483,12.263,12.263,0,0,0-1.384.527c-1.151.468-2.284,1.023-3.6.633l-.365.886c-.56-.033-1.145-.025-1.715-.115a.611.611,0,0,0-.808.527.518.518,0,0,1-.026.063c-.96,2.317-.931,2.3.2,4.526.944,1.865,1.812,3.768,2.758,5.748L24.961,86.434l-1.578-4.081C23.636,79.879,23.938,77.411,24.122,74.935Zm13.1-8.376a.842.842,0,0,0-.212,1.278c.149.149.323.272.481.412.127.115.248.237.411.394a2.206,2.206,0,0,1-2.046-1.51l-1.489.575c.249.644.495,1.3.76,1.942.039.095.145.227.225.23A8.023,8.023,0,0,0,37.5,69.9a18.244,18.244,0,0,0,2.834-1.076A1.54,1.54,0,0,0,41,68.258c.814-1.3.8-1.393-.12-3.12C39.635,65.621,38.425,66.078,37.226,66.559Z" transform="translate(-23.383 -34.696)" fill="#fff"/>
        <g id="Group_4" data-name="Group 4" transform="translate(9.746)" opacity="0.5">
          <path id="Path_28" data-name="Path 28" d="M39.16,49.593l1.579-.61.369.77q.294-.114.581-.229a3.064,3.064,0,0,1,2.469-2.472,7.623,7.623,0,0,0,1.013-.376c.211-.089.425-.179.646-.264l1.709-.66.443,1.139,20.962-8.1-.492-1.274,4.73-1.829.48,1.24,1.172-.387,2.75,7.113,5.275-2.039-1.658-4.29.718-.38-2.363-6.111-1.172.387-.447-1.157-1.317.506c.165.429.331.858.492,1.274L52.723,41.268c-.15-.389-.283-.732-.443-1.139a16.871,16.871,0,0,1-1.874.708A1.282,1.282,0,0,0,49.267,42.3a.753.753,0,0,1-.316.6c-.965.418-1.955.778-2.966,1.169l-.366-.766a17.319,17.319,0,0,1-2.342.88c-1.139.253-1.384,1.09-1.611,2.03.232.089.425.171.624.237s.4.115.66.19c-1.025.875-1.068.882-3.038.579a5.327,5.327,0,0,0-1.131,2.52C38.907,49.693,39.031,49.645,39.16,49.593Z" transform="translate(-38.78 -30.062)" fill="#fff"/>
          <path id="Path_29" data-name="Path 29" d="M45.523,88.658l-.282.116a8.423,8.423,0,0,1-2.831.777l-.345.84-1.305-.077c-.154-.009-.31-.015-.468-.02s-.346-.013-.53-.023a4.288,4.288,0,0,0-.3.9,8.482,8.482,0,0,0,.63,1.382l.055.109q.269.53.527,1.059l6.4-2.474c-.438-.917-.859-1.815-1.279-2.7C45.7,88.583,45.614,88.622,45.523,88.658Z" transform="translate(-39.031 -51.526)" fill="#fff"/>
        </g>
      </g>
      <g id="Group_6" data-name="Group 6" transform="translate(12.55)">
        <path id="Path_30" data-name="Path 30" d="M28.626,27.948,48.985,7.515,62.808,21.339l4.553-1.76-.492-1.272.3-.118L48.985,0,24.869,24.191l-5.042-5.042V32.5h13.35Z" transform="translate(-19.827)" fill="#fff"/>
        <path id="Path_31" data-name="Path 31" d="M109.2,44.792l1.336,3.455-3.892,1.5,8.4,8.395-4.724,4.515,3.757,3.757,8.482-8.272Z" transform="translate(-51.691 -16.44)" fill="#fff"/>
      </g>
      <g id="Group_7" data-name="Group 7" transform="translate(0 32.5)">
        <path id="Path_32" data-name="Path 32" d="M14.525,73.651c.136-.361.273-.722.4-1.087.16-.466.123-.546.087-.623a8.427,8.427,0,0,1-.472-1.412c-.041-.152-.081-.308-.127-.467l-.5-1.658.936-.519L7.515,60.551l5.317-5.45L9.075,51.344,0,60.551,14.142,74.694C14.269,74.334,14.4,73.987,14.525,73.651Z" transform="translate(0 -51.344)" fill="#fff"/>
        <path id="Path_33" data-name="Path 33" d="M78.385,84.049l-20.914,20.83L44.225,91.633l-1.038.4c.149.316.3.624.449.949.282.6.566,1.2.858,1.812l1,2.1-2.546.982,14.521,14.521L82.143,87.806l4.5,4.5V78.959H73.3Z" transform="translate(-15.764 -61.479)" fill="#fff"/>
      </g>
    </g>
    <g id="Rectangle_29" data-name="Rectangle 29" transform="translate(63.957 8.446) rotate(45)" fill="none" stroke="#fff" stroke-width="3">
      <rect width="78.504" height="78.504" stroke="none"/>
      <rect x="-1.5" y="-1.5" width="81.504" height="81.504" fill="none"/>
    </g>
  </g>
</svg>
