<svg xmlns="http://www.w3.org/2000/svg" width="119.507" height="119.507" viewBox="0 0 119.507 119.507">
  <g id="QuickReload" transform="translate(4.243 4.243)" opacity="0.996">
    <g id="Rectangle_6" data-name="Rectangle 6" transform="translate(55.511 0) rotate(45)" fill="none" stroke="#fff" stroke-width="3">
      <rect width="78.504" height="78.504" stroke="none"/>
      <rect x="-1.5" y="-1.5" width="81.504" height="81.504" fill="none"/>
    </g>
    <rect id="Rectangle_31" data-name="Rectangle 31" width="78.504" height="78.504" transform="translate(55.511) rotate(45)" fill="#00ffeb" opacity="0.502"/>
    <g id="QuickLoad" transform="translate(13.065 13.649)">
      <g id="Group_8" data-name="Group 8" transform="translate(30.507 20.302)">
        <path id="Path_34" data-name="Path 34" d="M54.215,78.56V57.575l-1.207-3.132-.016-3.969H48.314L48.3,54.443l-1.207,3.132V78.56l.606.7v.692l-.606.375v.7h7.123v-.7l-.606-.375v-.692Z" transform="translate(-47.092 -38.078)" fill="#fff"/>
        <path id="Path_35" data-name="Path 35" d="M51.748,31.339h-.864l-1.9,11.6h4.661Z" transform="translate(-47.759 -31.339)" fill="#fff"/>
        <path id="Path_36" data-name="Path 36" d="M67.651,78.56V57.575l-1.207-3.132-.015-3.969H61.75l-.016,3.969-1.206,3.132V78.56l.606.7v.692l-.606.375v.7h7.123v-.7l-.606-.375v-.692Z" transform="translate(-51.824 -38.078)" fill="#fff"/>
        <path id="Path_37" data-name="Path 37" d="M65.184,31.339H64.32l-1.9,11.6h4.662Z" transform="translate(-52.491 -31.339)" fill="#fff"/>
        <path id="Path_38" data-name="Path 38" d="M81.207,78.56V57.575L80,54.443l-.016-3.969H75.306l-.016,3.969-1.207,3.132V78.56l.606.7v.692l-.606.375v.7h7.123v-.7l-.606-.375v-.692Z" transform="translate(-56.598 -38.078)" fill="#fff"/>
        <path id="Path_39" data-name="Path 39" d="M78.741,31.339h-.864l-1.9,11.6H80.64Z" transform="translate(-57.265 -31.339)" fill="#fff"/>
      </g>
      <g id="Group_9" data-name="Group 9">
        <path id="Path_40" data-name="Path 40" d="M7.692,42.685,42.685,7.691,63.52,28.6l-4.658,4.658H72.526V19.6l-5.16,5.16L42.685,0,0,42.685l8.681,8.466,3.845-3.845Z" fill="#fff"/>
        <path id="Path_41" data-name="Path 41" d="M83.054,51.344l-3.845,3.845,5.442,5.578L49.657,95.761,28.252,74.443l5.209-5.209H19.8V82.9l4.609-4.609,25.251,25.164L92.342,60.767Z" transform="translate(-6.972 -18.083)" fill="#fff"/>
      </g>
    </g>
  </g>
</svg>
