<svg xmlns="http://www.w3.org/2000/svg" width="119.507" height="119.507" viewBox="0 0 119.507 119.507">
  <g id="Smoke" transform="translate(4.243 4.243)">
    <g id="Rectangle_11" data-name="Rectangle 11" transform="translate(55.511 0) rotate(45)" fill="none" stroke="#fff" stroke-width="3">
      <rect width="78.504" height="78.504" stroke="none"/>
      <rect x="-1.5" y="-1.5" width="81.504" height="81.504" fill="none"/>
    </g>
    <rect id="Rectangle_35" data-name="Rectangle 35" width="78.504" height="78.504" transform="translate(55.511 0) rotate(45)" fill="#3bff00" opacity="0.497"/>
    <g id="SmokeGrenade" transform="translate(27.503 27.757)">
      <g id="Group_15" data-name="Group 15" transform="translate(5.162 1.937)">
        <path id="Path_65" data-name="Path 65" d="M121.993,29.562h0l-1.239-14.166.008-.009-12.986-10.9-1.909,2.275,12.034,10.1,1.026,11.732-5.922,7.057-.164,4.816,9.152-10.906Z" transform="translate(-65.341 -4.489)" fill="#fff"/>
        <path id="Path_66" data-name="Path 66" d="M97.043,23.272l1.108.93,1.581-1.884L89.1,13.4,87.52,15.281l1.108.93-3.32,3.956L80.9,16.47,75.157,25.3l2.321,1.948,10.631,8.921,2.322,1.948,7.7-7.192-4.406-3.7Z" transform="translate(-47.885 -9.552)" fill="#fff"/>
        <rect id="Rectangle_18" data-name="Rectangle 18" width="26.818" height="13.878" transform="matrix(0.643, -0.766, 0.766, 0.643, 11.187, 39.631)" fill="#fff"/>
        <path id="Path_67" data-name="Path 67" d="M19.668,95.021l-7.7,7.192L29.2,116.668l5.745-8.83Z" transform="translate(-11.97 -55.947)" fill="#fff"/>
      </g>
      <path id="Path_68" data-name="Path 68" d="M34.615,94.421l.059.049.07-.083Z" transform="translate(-19.679 -53.65)" fill="#fff"/>
      <path id="Path_69" data-name="Path 69" d="M5.042,58.43A16.232,16.232,0,0,1,32.162,43.905,16.233,16.233,0,1,0,7.647,64.894,16.166,16.166,0,0,1,5.042,58.43Z" transform="translate(-1.436 -20.929)" fill="#fff"/>
      <g id="Group_16" data-name="Group 16" transform="translate(0 0.63)">
        <path id="Path_70" data-name="Path 70" d="M75.071,22.768l.021.026-.018-.032Z" transform="translate(-42.674 -13.569)" fill="#fff"/>
        <path id="Path_71" data-name="Path 71" d="M25.338,3.513A17.186,17.186,0,0,0,3.654,29.23,17.184,17.184,0,0,1,23.62,4.753a5.478,5.478,0,0,1,1.718-1.24Z" transform="translate(-0.01 -1.461)" fill="#fff"/>
      </g>
      <path id="Path_72" data-name="Path 72" d="M63.915,7.057A13.455,13.455,0,0,0,39.3,17.664l.041-.013a3.168,3.168,0,0,1,.546-.09A13.452,13.452,0,0,1,64.418,8.1C64.265,7.747,64.1,7.4,63.915,7.057Z" transform="translate(-21.958 -0.001)" fill="#fff"/>
    </g>
  </g>
</svg>
