<svg xmlns="http://www.w3.org/2000/svg" width="111.022" height="111.022" viewBox="0 0 111.022 111.022">
  <g id="Sprint" transform="translate(0)">
    <rect id="Rectangle_48" data-name="Rectangle 48" width="78.504" height="78.504" transform="translate(55.511) rotate(45)" fill="#ff8900" opacity="0.497"/>
    <g id="Rectangle_4" data-name="Rectangle 4" transform="translate(55.511 0) rotate(45)" fill="none" stroke="#fff" stroke-width="3">
      <rect width="78.504" height="78.504" stroke="none"/>
      <rect x="1.5" y="1.5" width="75.504" height="75.504" fill="none"/>
    </g>
    <g id="Sprint-2" data-name="Sprint" transform="translate(23.241 29.521)">
      <g id="Group_2" data-name="Group 2" transform="translate(21.873 5.697)" opacity="0.5">
        <path id="Path_6" data-name="Path 6" d="M84.08,43.367,70.744,30.031,84.08,16.694h-6.65L64.094,30.031,77.431,43.367Z" transform="translate(-64.094 -16.694)" fill="#fff"/>
        <path id="Path_7" data-name="Path 7" d="M106.818,44.7,94.911,32.791l11.907-11.907h8.472L103.384,32.791,115.29,44.7Z" transform="translate(-84.394 -19.454)" fill="none" stroke="#fff" stroke-miterlimit="10" stroke-width="1"/>
        <path id="Path_8" data-name="Path 8" d="M115.633,45.71,104.815,34.891l10.818-10.818h-5.394L99.421,34.891,110.239,45.71Z" transform="translate(-87.365 -21.555)" fill="#fff"/>
        <path id="Path_9" data-name="Path 9" d="M143.96,47.5l-8.89-8.89,8.89-8.89h-4.433l-8.89,8.89,8.89,8.89Z" transform="translate(-107.928 -25.277)" fill="#fff"/>
      </g>
      <path id="Path_10" data-name="Path 10" d="M35.771,0c.472.127.942.264,1.418.375a.353.353,0,0,1,.3.3c.142.546.3,1.086.465,1.626a.22.22,0,0,1-.059.251c-.182.184-.359.375-.526.572a.73.73,0,0,0-.14.273c-.055.2-.083.414-.139.616a.226.226,0,0,1-.137.137c-.6.148-1.209.289-1.816.426a.214.214,0,0,1-.171-.03,1.9,1.9,0,0,0-1.213-.454c-.625-.063-1.247-.15-1.868-.236a.142.142,0,0,0-.173.086c-.127.231-.256.462-.393.687a.354.354,0,0,1-.159.137Q28.328,5.889,25.489,7a.565.565,0,0,1-.2.031c-.407,0-.814,0-1.221,0a.316.316,0,0,0-.2.072q-2.221,2.058-4.436,4.124c-.015.014-.028.031-.048.054.021.046.041.093.065.139q2.54,4.85,5.085,9.7a.531.531,0,0,0,.229.216q2.688,1.272,5.381,2.534a.99.99,0,0,1,.257.178q1.191,1.141,2.378,2.286a.8.8,0,0,0,.233.156q4.5,1.911,9.017,3.81a2.167,2.167,0,0,0,.683.1c1,.068,1.993.125,2.989.185.77.046,1.539.094,2.31.137a2.045,2.045,0,0,1,.719.156q4.195,1.814,8.4,3.617a.385.385,0,0,0,.3.01c.4-.134.8-.255,1.2-.389a.181.181,0,0,1,.227.066q2.777,3.174,5.56,6.341l.909,1.037c-.034.038-.068.076-.105.111-.273.265-.549.527-.819.8a.252.252,0,0,1-.275.081c-1.412-.345-2.827-.683-4.241-1.024a.583.583,0,0,1-.074-.032l.777-1c-.032-.037-.061-.073-.094-.1-.385-.377-.773-.751-1.155-1.132-.075-.074-.13-.1-.228-.036a1.29,1.29,0,0,1-.515.259,1.441,1.441,0,0,1-.54-.2c-.866-.361-1.733-.72-2.6-1.086a.508.508,0,0,1-.2-.163c-.271-.377-.536-.759-.8-1.143a.23.23,0,0,0-.2-.116c-1.309-.057-2.618-.12-3.927-.18-1.04-.047-2.08-.089-3.12-.137q-1.583-.072-3.166-.149c-.036,0-.072-.006-.14-.013V35.018c-.484-.025-.936-.049-1.389-.071-.86-.042-1.72-.081-2.58-.125a.591.591,0,0,1-.2-.052c-.5-.216-1-.434-1.552-.671l.564,1.229c-.234-.038-.449-.071-.663-.107L33.816,34.5c-.634-.107-1.269-.212-1.9-.323a.857.857,0,0,1-.249-.1q-2.444-1.319-4.886-2.641a.177.177,0,0,0-.246.018Q23.419,34.29,20.3,37.115c-.031.028-.064.053-.129.106.253.026.464.051.675.068l4.212.379c1.115.1,2.23.2,3.344.295.51.045,1.02.1,1.53.138a.239.239,0,0,0,.168-.077c.183-.2.354-.421.536-.626a.176.176,0,0,1,.154-.04c.857.31,1.712.629,2.569.938.1.034.1.09.1.168q-.054,1.386-.108,2.772-.056,1.41-.114,2.819l-.154,3.849a1.042,1.042,0,0,1-.012.106c-.375-.059-.742-.133-1.113-.171a.472.472,0,0,1-.415-.315c-.6-1.2-1.21-2.389-1.827-3.6l.726-.26-1.2-2.15-2.616.422-3.248.524-3.421.551c-1.156.186-2.314.357-3.465.57A.584.584,0,0,1,15.8,43.3c-.28-.4-.6-.78-.907-1.16a.425.425,0,0,0-.227-.143c-.687-.137-1.377-.265-2.066-.391a.2.2,0,0,1-.183-.158c-.214-.717-.437-1.431-.653-2.148a.394.394,0,0,1,0-.212q.425-1.49.86-2.976a.735.735,0,0,1,.1-.2q.992-1.5,1.988-3a1.562,1.562,0,0,1,.181-.219q1.959-2.021,3.92-4.039l.143-.149c-.034-.043-.062-.085-.094-.124l-2-2.4a.493.493,0,0,0-.3-.181c-.572-.12-1.144-.246-1.712-.383a.444.444,0,0,1-.215-.164q-1.075-1.382-2.141-2.772c-.022-.029-.045-.057-.091-.114-.036.275-.07.52-.1.767L11.965,25.9q-.149,1.218-.3,2.436c-.056.461-.109.921-.171,1.382a.307.307,0,0,1-.1.182c-.588.466-1.181.926-1.785,1.4l-.925-.789L3.1,25.731a1.642,1.642,0,0,0-.22-.154Q1.439,24.711,0,23.847v-.032c.023-.041.047-.081.068-.124l1.448-3.181c.023-.05.048-.1.075-.152.353.219.687.432,1.027.634a1.008,1.008,0,0,0,.319.122c.331.064.665.115,1,.167a.16.16,0,0,1,.156.144c.114.58.23,1.158.356,1.734a.489.489,0,0,0,.133.239c.68.642,1.368,1.276,2.05,1.916a.285.285,0,0,0,.292.093,4.658,4.658,0,0,1,.469-.068L8.5,25.177c.024-.4.047-.775.068-1.154.05-.865.1-1.73.151-2.594a.261.261,0,0,0-.087-.235q-.546-.507-1.079-1.028a.369.369,0,0,1-.1-.2c-.031-.219-.043-.441-.063-.662-.08-.857-.163-1.713-.236-2.57a.264.264,0,0,1,.092-.191c.234-.189.478-.366.717-.548l.6-.457-.41-.438L6.343,16.369c-.11-.079-.21-.157-.317-.224a.167.167,0,0,1-.083-.21c.068-.287.128-.576.183-.865a.292.292,0,0,0-.034-.187c-.181-.3-.371-.6-.558-.9l-.9-1.454,1.712-1.936L5.358,9.165l-2.6,2.515c-.015-.045-.024-.068-.03-.092-.181-.742-.364-1.484-.538-2.228a.4.4,0,0,1,.027-.249q.694-1.4,1.4-2.783a.461.461,0,0,1,.168-.176c.778-.457,1.56-.907,2.338-1.365a.21.21,0,0,1,.242,0c.858.478,1.719.947,2.576,1.425a.444.444,0,0,1,.177.2c.223.541.434,1.087.648,1.63.048.121.1.242.157.382l2.786-2.373c.3.228.6.444.894.672a.187.187,0,0,0,.249.019c.363-.216.733-.418,1.1-.633a.171.171,0,0,1,.211.005c.228.153.458.3.694.444a.219.219,0,0,0,.18.011q2.366-1.213,4.727-2.432a.173.173,0,0,0,.1-.171c.009-.19.034-.378.046-.568.005-.085.043-.115.122-.132q2.185-.458,4.366-.919c2.979-.631,5.972-1.2,8.913-2C34.759.23,35.2.117,35.644,0Z" fill="#fff"/>
    </g>
  </g>
</svg>
