<svg xmlns="http://www.w3.org/2000/svg" width="115.264" height="115.264" viewBox="0 0 115.264 115.264">
  <g id="Teleport" transform="translate(-4.921 -4.92)">
    <rect id="Rectangle_2" data-name="Rectangle 2" width="78.504" height="78.504" transform="translate(62.553 7.042) rotate(45)" fill="#ff8900" opacity="0.497"/>
    <g id="Teleport-2" data-name="Teleport" transform="translate(34.694 28.691)">
      <g id="Group_3" data-name="Group 3" transform="translate(0 0.001)" opacity="0.5">
        <path id="Path_11" data-name="Path 11" d="M16.951,91.38a2.253,2.253,0,0,0,.033.512h6.857q.237-.722.472-1.444H17.034C17.005,90.759,16.973,91.07,16.951,91.38Z" transform="translate(-9.936 -53.029)" fill="#fff"/>
        <path id="Path_12" data-name="Path 12" d="M1.675,77.667a.355.355,0,0,0,.116.182c.243.192.491.38.737.569H4.3c.172-.311.34-.624.51-.936H1.63C1.645,77.543,1.659,77.605,1.675,77.667Z" transform="translate(-0.956 -45.427)" fill="#fff"/>
        <path id="Path_13" data-name="Path 13" d="M15.45,127.67a2.033,2.033,0,0,0,.083.69h4.33c.1-.294.207-.586.315-.877.131-.353.264-.706.4-1.059h-5.1C15.472,126.84,15.472,127.255,15.45,127.67Z" transform="translate(-9.056 -74.12)" fill="#fff"/>
        <path id="Path_14" data-name="Path 14" d="M30.369,77.481H19.777c-.124.312-.252.624-.379.936H30.619a2.35,2.35,0,0,1-.086-.257C30.477,77.934,30.423,77.707,30.369,77.481Z" transform="translate(-11.372 -45.427)" fill="#fff"/>
        <path id="Path_15" data-name="Path 15" d="M8.451,49.375a.585.585,0,0,1,.078-.189l.339-.443H2.734l-.446,1.051H8.325Z" transform="translate(-1.341 -28.58)" fill="#fff"/>
        <path id="Path_16" data-name="Path 16" d="M56.681,127.509c.015-.312.016-.626.018-.939v-.146H54.413q.361.967.715,1.936h1.213v-.881Z" transform="translate(-31.899 -74.12)" fill="#fff"/>
        <path id="Path_17" data-name="Path 17" d="M53.251,91.234c.019-.261.041-.522.065-.782H47.5l.472,1.444h5.289A3.893,3.893,0,0,1,53.251,91.234Z" transform="translate(-27.846 -53.031)" fill="#fff"/>
        <path id="Path_18" data-name="Path 18" d="M4.364,66.671H.4c-.127.347-.269.688-.382,1.04,0,.012-.01.022-.015.034H4.8a.819.819,0,0,0-.135-.633,4.3,4.3,0,0,0-.3-.441Z" transform="translate(0 -39.09)" fill="#fff"/>
        <path id="Path_19" data-name="Path 19" d="M50.046,107.466c-.031.178-.063.357-.094.535a1.189,1.189,0,0,0,.071.725c.026.06.05.124.075.183h4.055l.019-1.444Z" transform="translate(-29.268 -63.006)" fill="#fff"/>
        <path id="Path_20" data-name="Path 20" d="M25.249,17.2c.033-.077.067-.15.11-.235l1.015-2.1q.1-.942.228-1.882a2.441,2.441,0,0,1,.887-1.589c.445-.352.893-.7,1.339-1.051-.139-.138-.266-.262-.379-.391-.024-.027,0-.115.027-.168q.447-1.014.9-2.025c.027-.062.053-.124.088-.207L26,5.932l-1.055,2.52-.624-.108c.026-.073.046-.135.07-.195Q25.05,6.573,25.708,5a.786.786,0,0,0,.06-.29q.009-.838,0-1.676a.708.708,0,0,0-.07-.283c-.09-.193-.207-.372-.292-.568a3.4,3.4,0,0,0-1-1.263A3.623,3.623,0,0,0,22.053.023a5.354,5.354,0,0,1-.715,0,5.083,5.083,0,0,0-2.205.346.681.681,0,0,0-.193.11c-.228.187-.442.392-.679.566a3.077,3.077,0,0,0-.788.982,3.332,3.332,0,0,0-.455,1.8,4.568,4.568,0,0,0,.414,1.992c.365.768.667,1.566,1,2.351.022.052.039.105.065.174l-.624.115c-.353-.841-.7-1.675-1.057-2.524l-3.466,1.62c.108.246.211.485.316.722.221.5.439,1,.668,1.49a.21.21,0,0,1-.056.29c-.12.108-.223.235-.323.343-.046-.019-.063-.021-.067-.029-.248-.518-.78-.527-1.227-.685a.193.193,0,0,0-.147.047q-2.1,1.64-4.19,3.289a.39.39,0,0,0-.118.237q-.124.941-.227,1.885a.347.347,0,0,0,.083.228c.13.159.358.287.393.459s-.127.367-.2.551q-.379.913-.76,1.825h5.942l.1-.128c.01.045.018.083.027.128H24.821l.066-.156ZM24,5.984a.193.193,0,0,1-.108.139c-.5.178-1,.354-1.508.514-.3.094-.3.083-.3.4v3.629H20.656V6.679A11.158,11.158,0,0,1,18.8,6.121.175.175,0,0,1,18.7,6c-.007-.451,0-.9,0-1.375.47.171.936.3,1.365.509a3.765,3.765,0,0,0,1.857.231,2.171,2.171,0,0,0,.6-.2C23,4.99,23.486,4.811,24,4.621c0,.473,0,.918,0,1.363Z" transform="translate(-4.389 -0.012)" fill="#fff"/>
        <path id="Path_21" data-name="Path 21" d="M23.093,48.743q.1.528.22,1.051h9.375q.222-.525.446-1.051Z" transform="translate(-13.538 -28.58)" fill="#fff"/>
        <path id="Path_22" data-name="Path 22" d="M33.308,66.94c.031-.091.066-.18.1-.269h-7.9c-.014.058-.029.116-.047.174-.094.3-.183.6-.274.9h7.881v-.317S33.3,66.959,33.308,66.94Z" transform="translate(-14.766 -39.09)" fill="#fff"/>
        <path id="Path_23" data-name="Path 23" d="M22.474,107.466H15.737q-.01.722-.019,1.444h6.714a2.223,2.223,0,0,0,.059-1.354C22.484,107.526,22.48,107.5,22.474,107.466Z" transform="translate(-9.214 -63.006)" fill="#fff"/>
        <path id="Path_24" data-name="Path 24" d="M33.7,57.069H25.633a4.593,4.593,0,0,1,.2,1.074h7.786q.027-.372.052-.745C33.683,57.289,33.691,57.179,33.7,57.069Z" transform="translate(-15.027 -33.461)" fill="#fff"/>
        <path id="Path_25" data-name="Path 25" d="M.531,58.143H5.489l.589-1.074H.606C.582,57.427.556,57.785.531,58.143Z" transform="translate(-0.311 -33.461)" fill="#fff"/>
      </g>
      <path id="Path_26" data-name="Path 26" d="M78.378,62.263H75.667c-.292-.156-.579-.319-.877-.463a.882.882,0,0,1-.4-.374c-.476-.825-.964-1.643-1.446-2.464a2.091,2.091,0,0,1-.372-.685,2.249,2.249,0,0,1,.192-.773c.022-.078.038-.158.067-.234a1.945,1.945,0,0,0,.092-1.315,1.959,1.959,0,0,1-.041-.222,8.041,8.041,0,0,0-.246-1.23c-.675-1.865-1.381-3.718-2.076-5.575-.181-.485-.361-.97-.544-1.461l.6-.379c-.185-.462-.353-.914-.547-1.354A1.189,1.189,0,0,1,70,45.007a13.357,13.357,0,0,0,.322-3.282,1.246,1.246,0,0,0-.044-.294q-1.259-3.862-2.524-7.722c-.02-.06-.048-.118-.079-.195-.148.138-.282.252-.4.379a.4.4,0,0,1-.331.132q-.61-.016-1.221,0a.4.4,0,0,1-.331-.132c-.124-.13-.26-.246-.4-.379-.024.058-.041.09-.053.124q-1.283,3.914-2.56,7.829a.805.805,0,0,0-.034.2,10.7,10.7,0,0,0,.252,2.893,2.122,2.122,0,0,1-.154,1.556,7.205,7.205,0,0,0-.339.834c-.017.045-.03.091-.046.14l.587.376c-.02.059-.032.1-.047.142l-2.155,5.766c-.178.48-.363.96-.5,1.453-.113.414-.146.85-.231,1.274a1.649,1.649,0,0,0,.045.917c.127.352.21.72.321,1.078a.375.375,0,0,1-.041.331c-.612,1.028-1.216,2.061-1.829,3.089a.665.665,0,0,1-.239.222c-.32.182-.648.35-.973.523H54.28c-.184-.512-.364-1.026-.555-1.535a.349.349,0,0,1,.029-.316c.5-.933.99-1.871,1.49-2.8a1.046,1.046,0,0,0,.132-.535c-.009-.475,0-.952,0-1.441l.405.036c.063-.242.137-.481.182-.725a.553.553,0,0,0-.032-.335,1.971,1.971,0,0,1-.222-1.047c.026-.507.02-1.016.027-1.524q.062-4.649.124-9.3c0-.065.006-.13.01-.207l.778.216c.076-.237.147-.455.214-.677a.254.254,0,0,0,0-.11c-.14-.878-.285-1.755-.421-2.634a4.4,4.4,0,0,1-.111-.967c.076-1.05.2-2.1.29-3.145a3.931,3.931,0,0,1,.3-1.192c.384-.924.753-1.855,1.128-2.784.093-.229.187-.458.3-.721l.56.887c.026-.072.041-.111.053-.152.35-1.162.692-2.326,1.053-3.485a2.989,2.989,0,0,0,.14-1.034c-.02-.482-.05-.967-.022-1.448a4.652,4.652,0,0,0-.405-2.187,9.546,9.546,0,0,1-.566-1.57c-.219-.9-.369-1.815-.55-2.723-.046-.233-.1-.464-.155-.732-.669.872-1.312,1.706-1.95,2.543a.6.6,0,0,0-.078.189Q56.061,22,55.7,23.194c-.021.068-.048.134-.075.207l-.331-.176-2.14,3.905c.093.076.166.147.248.2a2.052,2.052,0,0,1,.572.7.786.786,0,0,1-.022.984,5.37,5.37,0,0,0-.35.644l-.748-.709c-.041.576-.053,1.111-.128,1.636a.958.958,0,0,0,.334.927c.06.054.1.131.16.185.083.074.07.138.02.228-.225.405-.437.818-.665,1.221a.309.309,0,0,1-.2.135c-.3.041-.6.071-.9.094a.3.3,0,0,1-.186-.059q-.579-.436-1.147-.885a.358.358,0,0,1-.116-.182c-.169-.686-.328-1.375-.5-2.062-.1-.392-.2-.782-.3-1.173v-.188a1.544,1.544,0,0,0,.094-.2,14.37,14.37,0,0,0,.654-1.993.9.9,0,0,0-.239-.962c-.041-.035-.067-.092-.108-.13a.487.487,0,0,1-.132-.426c.056-.738.1-1.477.156-2.214a1.723,1.723,0,0,1,.111-.527c.612-1.46,1.235-2.916,1.856-4.373.026-.06.057-.118.1-.2l.483.876c.039-.088.062-.138.083-.189l.88-2.115c.077-.185.237-.388.2-.551s-.264-.3-.393-.459a.349.349,0,0,1-.08-.228q.1-.943.227-1.885a.39.39,0,0,1,.118-.237q2.089-1.651,4.189-3.289a.193.193,0,0,1,.147-.047c.448.158.98.166,1.227.685,0,.008.021.01.067.029.1-.108.2-.235.323-.343a.21.21,0,0,0,.056-.29c-.229-.494-.447-.993-.668-1.49-.106-.237-.207-.476-.316-.722l3.466-1.62,1.056,2.524.624-.115c-.026-.069-.043-.124-.065-.174-.329-.786-.631-1.583-1-2.351a4.562,4.562,0,0,1-.411-1.992,3.332,3.332,0,0,1,.453-1.8,3.083,3.083,0,0,1,.788-.982c.237-.175.451-.38.679-.566a.681.681,0,0,1,.193-.11A5.085,5.085,0,0,1,66.262.021a5.354,5.354,0,0,0,.715,0,3.622,3.622,0,0,1,2.356.895,3.4,3.4,0,0,1,1,1.264c.083.2.2.375.292.568a.715.715,0,0,1,.07.283q.01.838,0,1.676a.8.8,0,0,1-.06.29q-.656,1.579-1.319,3.152c-.025.06-.044.122-.07.195l.624.108,1.055-2.52,3.467,1.621c-.034.083-.06.144-.088.207q-.45,1.012-.9,2.027c-.023.052-.052.14-.028.166.138.158.29.3.47.481.168-.464.544-.567.927-.659a1.291,1.291,0,0,0,.214-.07.25.25,0,0,1,.286.055c1.365,1.076,2.734,2.145,4.1,3.223a.492.492,0,0,1,.163.29c.076.521.114,1.047.2,1.565a.662.662,0,0,1-.264.745c-.041.028-.069.074-.108.1a.185.185,0,0,0-.055.257c.364.859.717,1.721,1.076,2.582.018.041.045.083.078.143l.477-.869c.032.063.047.09.059.118q.97,2.281,1.938,4.563a.574.574,0,0,1,.041.18c.05.7.062,1.407.158,2.1a1.2,1.2,0,0,1-.381,1.122.4.4,0,0,0-.124.42c.045.194.041.4.1.592.137.448.3.889.451,1.331.072.2.161.4.243.6v.188a.587.587,0,0,0-.041.1q-.372,1.552-.751,3.1a.445.445,0,0,1-.137.23c-.372.3-.751.587-1.132.874a.3.3,0,0,1-.186.059c-.306-.024-.612-.055-.916-.1a.261.261,0,0,1-.17-.115c-.233-.414-.452-.838-.682-1.255a.156.156,0,0,1,.029-.211c.151-.168.3-.341.436-.518a.331.331,0,0,0,.075-.2c-.016-.35-.044-.7-.07-1.051-.023-.314-.05-.628-.078-.977l-.745.706c-.2-.372-.388-.725-.572-1.079a.152.152,0,0,1,0-.12,2.423,2.423,0,0,1,.871-1.211,1.02,1.02,0,0,0,.143-.124l-2.138-3.9-.336.173c-.017-.047-.032-.083-.041-.115-.248-.828-.5-1.655-.751-2.478a.876.876,0,0,0-.134-.264c-.355-.47-.716-.937-1.076-1.4l-.811-1.053a1.308,1.308,0,0,0-.045.131c-.13.651-.251,1.3-.389,1.952-.124.586-.23,1.18-.41,1.751-.225.715-.516,1.41-.776,2.114a.738.738,0,0,0-.05.235q-.023,1.44-.036,2.88a.876.876,0,0,0,.037.257q.565,1.9,1.136,3.793c.018.061.046.118.077.2l.549-.869c.037.083.063.137.086.193.5,1.23,1,2.458,1.49,3.691a2.08,2.08,0,0,1,.119.546c.089.841.169,1.684.248,2.524a5.315,5.315,0,0,1,.074,1.122c-.124.981-.285,1.958-.47,2.929a2.006,2.006,0,0,0,.168,1.214l.767-.213c0,.055.008.092.009.13q.074,5.458.153,10.915a1.939,1.939,0,0,1-.219,1.009.366.366,0,0,0-.07.207c.062.292.142.579.216.869l.372-.033c.012.513.018,1.014.041,1.514a.957.957,0,0,0,.1.39c.5.967,1.016,1.928,1.521,2.894a.339.339,0,0,1,.034.239C78.759,61.2,78.567,61.733,78.378,62.263ZM68.927,4.619c-.514.189-1,.369-1.486.545a2.148,2.148,0,0,1-.6.2,3.762,3.762,0,0,1-1.855-.231c-.43-.207-.9-.337-1.365-.509,0,.473,0,.924,0,1.375a.174.174,0,0,0,.1.124,11.172,11.172,0,0,0,1.858.558v3.987h1.427V7.035c0-.319,0-.307.3-.4.506-.161,1.008-.337,1.508-.514a.2.2,0,0,0,.108-.139C68.931,5.538,68.927,5.093,68.927,4.619Z" transform="translate(-28.863 -0.01)" fill="#fff"/>
    </g>
    <rect id="Rectangle_30" data-name="Rectangle 30" width="78.504" height="78.504" transform="translate(62.553 7.042) rotate(45)" fill="none" stroke="#fff" stroke-width="3"/>
  </g>
</svg>
